# xmcd
#
# Track frame offsets: 
#        150
#        16533
#        32916
#        50975
#        65946
#        83988
#        104266
#        121267
#        137864
#        153751
#        170890
#
# Disc length: 2506 seconds
#
# Revision: 1
# Processed by: cddbd v1.5.2PL0 Copyright (c) Steve Scherf et al.
# Submitted via: ExactAudioCopy v0.90b4
#
DISCID=9809c80b
DTITLE=Gavin DeGraw - Finest Hour The Best of Gavin DeGraw
DYEAR=2014
DGENRE=Pop
TTITLE0=I Don't Want To Be
TTITLE1=Not Over You
TTITLE2=Follow Through
TTITLE3=In Love With A Girl (Max Martin Unreleased Version)
TTITLE4=Chariot
TTITLE5=We Belong Together
TTITLE6=Best I Ever Had
TTITLE7=Finest Hour (New Version)
TTITLE8=Soldier
TTITLE9=Fire
TTITLE10=You Got Me
EXTD=
EXTT0=
EXTT1=
EXTT2=
EXTT3=
EXTT4=
EXTT5=
EXTT6=
EXTT7=
EXTT8=
EXTT9=
EXTT10=
PLAYORDER=
